<?xml version="1.0" encoding="UTF-8" standalone="no"?>
<!-- Created with Inkscape (http://www.inkscape.org/) -->

<svg
   width="3000"
   height="1000"
   viewBox="0 0 3000 1000"
   version="1.1"
   id="svg2791"
   xmlns="http://www.w3.org/2000/svg"
   xmlns:svg="http://www.w3.org/2000/svg"
   xmlns:rdf="http://www.w3.org/1999/02/22-rdf-syntax-ns#"
   xmlns:cc="http://creativecommons.org/ns#"
   xmlns:dc="http://purl.org/dc/elements/1.1/">
  <defs
     id="defs2785" />
  <metadata
     id="metadata2788">
    <rdf:RDF>
      <cc:Work
         rdf:about="">
        <dc:format>image/svg+xml</dc:format>
        <dc:type
           rdf:resource="http://purl.org/dc/dcmitype/StillImage" />
      </cc:Work>
    </rdf:RDF>
  </metadata>
  <g
     id="layer1"
     transform="translate(0,-32.416659)">
    <path
       id="path40"
       style="fill:#000000;fill-opacity:0.831111;stroke:none;stroke-width:1px;stroke-linecap:butt;stroke-linejoin:miter;stroke-opacity:1"
       d="M 3000,1000 V 0 H 0 V 619.49609 L 200.50391,1000 h 100 L 100,619.49609 h 18 L 318.50391,1000 h 102 L 220,619.49609 h 18 L 438.50391,1000 h 102 L 340,619.49609 h 18 L 558.50391,1000 660.25195,1000.2519 459.74804,619.74804 h 18 l 200.50391,380.50396 102,-10e-5 -200.50391,-380.50388 h 18 l 200.50391,380.50398 102,-10e-5 -200.50391,-380.50389 h 18 L 918.25195,1000.252"
       transform="translate(0,32.416659)" />
    <path
       id="path3815-0-6-2"
       style="color:#000000;fill:#000000;fill-opacity:0.35228637;stroke:#000000;stroke-opacity:0.32310361;stroke-width:4;stroke-miterlimit:4;stroke-dasharray:none"
       d="M 1745.3164 0 C 1732.2177 8.1448406 1719.1018 16.261782 1706.2598 24.845703 C 1193.8696 312.89888 592.59802 406.76998 13.783203 285.2168 C 9.1515441 284.24413 4.623162 282.96192 0 281.96289 L 0 287.09961 C 4.2790167 288.02228 8.4695841 289.20924 12.755859 290.10938 C 577.19132 408.64285 1162.9323 322.71414 1667.1719 52.003906 C 1602.6026 98.269575 1541.449 149.91629 1484.5508 206.81445 C 1267.7357 423.62964 1126.3552 701.53267 1076.25 1000 L 1083.6738 1000 C 1153.2033 822.38512 1276.2564 669.21737 1438.0684 563.57227 C 1542.081 495.66371 1657.6328 450.18813 1777.5234 428.40039 C 1791.9444 462.58926 1809.3128 495.7106 1829.8789 527.21094 C 1884.6487 611.09952 1958.2933 679.61924 2043.7402 728.33008 C 1997.8738 779.42245 1964.3481 842.8185 1949.2246 914.83398 C 1943.2944 943.07246 1940.998 971.58511 1941.1523 1000 L 1946.1484 1000 C 1945.9941 971.92808 1948.2585 943.75955 1954.1172 915.86133 C 1969.1319 844.36404 2002.4883 781.47096 2048.1289 730.88086 C 2102.8175 761.47114 2162.2307 784.02095 2224.6855 797.13672 C 2367.9733 827.22773 2516.6021 805.85919 2644.9941 738.01562 C 2657.0081 752.12588 2668.5986 766.64498 2679.7891 781.52148 C 2722.1009 847.07942 2743.7578 923.09057 2743.3633 1000 L 2747.6406 1000 C 2747.9248 937.75317 2734.7048 876.04607 2707.1465 819.90234 C 2709.8069 823.84289 2712.4904 827.76455 2715.0938 831.75195 C 2749.9186 885.09167 2778.5375 941.56428 2801.4062 1000 L 2806.6895 1000 C 2783.5883 940.60505 2754.6519 883.19329 2719.2812 829.01758 C 2708.0314 811.78673 2696.2007 795.02834 2683.9102 778.68164 C 2683.5524 778.12774 2683.2337 777.55632 2682.873 777.00391 C 2673.1542 762.118 2662.4394 748.05231 2650.9824 734.71289 C 2665.831 726.65787 2680.473 718.1354 2694.7227 708.83203 C 2833.4915 618.23151 2930.5863 476.21412 2964.6465 314.02539 C 2986.7396 208.82202 2980.6987 100.84932 2949.3086 0 L 2944.0254 0 C 2975.5768 100.46937 2981.78 208.11379 2959.7539 312.99805 C 2925.9658 473.89089 2829.6483 614.76792 2691.9883 704.64453 C 2677.5613 714.06377 2662.7363 722.69118 2647.6914 730.82031 C 2638.4748 720.3593 2628.7698 710.38686 2618.5742 700.97852 C 2489.3812 563.47136 2320.3257 467.59416 2133.1523 428.28711 C 2015.9165 403.66716 1896.2657 402.27962 1780.5547 422.79492 C 1733.1068 308.25658 1720.6252 181.25579 1746.4668 58.203125 C 1750.611 38.469156 1755.7959 19.074257 1761.7832 0 L 1745.3164 0 z M 1755.918 2.0039062 C 1750.3531 20.106505 1745.4983 38.489923 1741.5742 57.175781 C 1715.6021 180.84989 1728.0186 308.48857 1775.4961 423.68164 C 1655.3599 445.66787 1539.5822 491.32042 1435.334 559.38281 C 1276.1317 663.32403 1153.926 812.87387 1083.25 986.57617 C 1135.2464 694.50819 1275.4449 422.99261 1488.0879 210.34961 C 1556.0867 142.35077 1630.1162 81.774173 1708.9004 29.099609 C 1724.6542 20.241381 1740.3352 11.228217 1755.918 2.0039062 z M 1956.7949 413.625 C 2015.3124 414.51463 2074.0156 420.97888 2132.123 433.18164 C 2302.8239 469.02941 2458.3617 552.19161 2582.0898 671.19141 C 2536.4262 637.99376 2483.9392 614.31879 2427.623 602.49219 C 2283.0948 572.14073 2140.4164 623.22212 2047.1387 724.52344 C 1961.9802 676.17138 1888.5966 608.00035 1834.0664 524.47852 C 1813.8775 493.55603 1796.8021 461.05374 1782.582 427.51562 C 1839.946 417.42029 1898.2774 412.73537 1956.7949 413.625 z M 2320.8711 599.47656 C 2355.5114 597.43282 2390.9953 599.91051 2426.5957 607.38672 C 2497.6341 622.30503 2562.605 656.168 2615.082 704.56055 C 2624.1464 714.21282 2632.9848 724.09478 2641.6465 734.1543 C 2514.5145 801.02963 2367.476 822.01497 2225.7129 792.24414 C 2164.1262 779.31069 2105.513 757.14514 2051.5293 727.07617 C 2120.6223 652.43231 2216.9501 605.60779 2320.8711 599.47656 z "
       transform="translate(0,32.416659)" />
  </g>
</svg>
